<?xml version="1.0" encoding="UTF-8"?>
<svg xmlns="http://www.w3.org/2000/svg" viewBox="0 0 566.03 289.7">
         <a xlink:title="1" xlink:href=""> <path class="cls-7" d="m173.18,256.77l.67,3.66-1.67,3v3.67l-1.91,2.32-4.42,7.68,1.1,8.25h-.18l-3.25.08-9-3-3.34,4.34-3.66-.34-.31-2.74,3.64-4.92-.67-2.34-7.45-2.86s-9.12-3.15-9.88-3.8c-.76-.65-5.33,0-5.33,0l-5.67,2-3.67-1.34-3-6-4.33,1.34-4.33-3-3.06-1.59.84-1.16.22-2.59-1.67-2.66h-1.67s-2.58,1.84-2.66,1.33c-.08-.51-1.19-3.49-1.52-4.27-.33-.77-3.1-2.76-3.1-2.76l-1.38-.97s-4.19.57-4.34-.33c-.14-.91-1.33-5.67-1.33-5.67l4.95-3.21,2.1-3.76,2.62-7.03-2-7.67-.37-3.84.37-.16-.34-2s3.32-3.17,3.68-3.41c0,.02.01.02.02,0,.02-.03,0-.03-.02-.01,0-.42,1.32-5.58,1.32-5.58l2.67-4s.31-.75-.33-1.33c-.65-.58-2.67-3.33-2.67-3.33l.14-1.67-.55-2.33,2.08.66,5.55-.54,8.74,1.1s10.14,4.13,11.04,4.11,2-1.67,2-1.67l1.67-10.33,2.98-5.05,1.79-6.58,3.89,3.3v5.33s.27,1.29,1,1.33c.73.05,5,1,5,1l1.67,1s-1.05,1.65-1.67,2.34-2.61,1.65-2.66,2c-.06.35-2.05,4.66-2.05,4.66l.44,4.09,2.1,4.43,2.22,1.88,2.98-.45.03-.04.37.38,3.57,3.71.35,1.26.99,6.41,1,2.33,4,.34,1.33,4.33v3l5.28-.98,3.39.98,2.33,2.67,2.67,5.66.33,5.67,1.33,2.67-.83,1.33-2.17,7,2,4.67Z"/></a>
         <a xlink:title="2" xlink:href=""> <path class="cls-3" d="m104.52,257.43l-.22,2.59-.84,1.16-.6.83-5.86,1.11-2.88-.45-8.73,6.2-7.63.88s-6.42-1.22-6.97-1.1c-.56.11-6.08.77-6.08.77l-5.65-4.53-3.2-10.62-5.64-1.88-2.22-4.09-4.86-.89-4.76,2.1-3.09-.55-2.55-3.1-1.21-6.63-3.76-2.66-2.66,3.43-4.31,4.76-1.11-10.18.78-13.71-2-7.3-10.06-4.65s-2.88,1.11-3.21,1.22c-.33.11-3.09-1.66-3.09-1.66l-2.11-2.1s1.77-4.87,2.33-5.42c.55-.55,3.76-.89,4.09-1.11.33-.22,1.33-3.2,1.33-3.2l1.1-5.2.45-4.76s2.54-2.43,2.98-2.54,9.62-.22,9.62-.22l2.44-2.55.4-.08,4.57.53,3.65,1.21,1.14,1.31.25,2.25,5.69,6.95s.73.95.81,1.8.25,2.75.25,2.75l-1.75,4.25.25,3.25,2.75.75,5.65,7s3.94,3.97,4.35,4.75c.41.78,1.25,3,1.25,3l5.75,3.25,3.5,1,3.25-1.75,3.75-7.75,1.75,2,2.4,5.56,2.85,3.44h2l3.75-8.25.27-.14,4.48-2.36,2,1.75,3-.5,1.8-.76.37,3.84,2,7.67-2.62,7.03-2.1,3.76-4.95,3.21s1.19,4.76,1.33,5.67c.15.9,4.34.33,4.34.33l1.38.97s2.77,1.99,3.1,2.76c.33.78,1.44,3.76,1.52,4.27.08.51,2.66-1.33,2.66-1.33h1.67l1.67,2.66Z"/></a>
         <a xlink:title="3" xlink:href=""> <path class="cls-18" d="m101.52,200.1c.64.58.33,1.33.33,1.33l-2.67,4s-1.32,5.16-1.32,5.58c.03-.02.04-.02.02.01-.01.02-.02.02-.02,0-.36.24-3.68,3.41-3.68,3.41l.34,2-.37.16-1.8.76-3,.5-2-1.75-4.48,2.36-.27.14-3.75,8.25h-2l-2.85-3.44-2.4-5.56-1.75-2-3.75,7.75-3.25,1.75-3.5-1-5.75-3.25s-.84-2.22-1.25-3c-.41-.78-4.35-4.75-4.35-4.75l-5.65-7-2.75-.75-.25-3.25,1.75-4.25s-.17-1.9-.25-2.75-.81-1.8-.81-1.8l-5.69-6.95-.25-2.25-1.14-1.31-3.65-1.21-4.57-.53-.29-.03,1.43-3.09,3.1-6.53h3.54l4.31,4.53,3.21-2.43,1.22-3.65-1.66-2.21-4.76-10.06-1.55-5.65,3.77-9.17.88-3.88-.22-5.42,2.99-3.2,2.65-3.98,4.42-4.87,5.31-4.98,5.54-.6,2.65,2.15,3.24,1.87,3.39,3.77.94,1.56,5.33.67,1.67,1.67,5.33-.67,1.88,10.15.79,6.85,5,3.33,1.67,2.34,1.33,3.66,3.67,4.34,3.33,6.66s2.54,2.77,2.67,3c.01.01.02.05.04.1.14.29.51,1.15.97,2.19.05.12.11.25.16.37.17.41.36.84.54,1.27.1.24.2.47.31.7h.01c.08.21.17.41.25.6.06.14.12.28.18.42.09.21.18.4.25.58.37.85.62,1.44.62,1.44l-6.33,5-2,2,.48,4.26,1.44,6.41.55,2.33-.14,1.67s2.02,2.75,2.67,3.33Z"/></a>
         <a xlink:title="4" xlink:href=""> <path class="cls-1" d="m163.03,162.25l-2.51,3.18,3,2.34-.49,1.23-.11,9.73c.19,2.01-1,3.27-2.03,3.98-.1.07-.2.13-.29.19-.53.32-.96.49-1.06.52h-.02s-1,4.35-1,4.35l-4.67,2.33-.31.34-1.51,1.65-.62.68-.1.75-.79,5.91-1.67,3.67-1.61,2.24-.03.04-2.98.45-2.22-1.88-2.1-4.43-.44-4.09s1.99-4.31,2.05-4.66c.05-.35,2.04-1.31,2.66-2s1.67-2.34,1.67-2.34l-1.67-1s-4.27-.95-5-1c-.73-.04-1-1.33-1-1.33v-5.33l-3.89-3.3-.44-.37-1-5-1-2-2.56-.98-1.43-1.04-1.01-.73.75-4,1.75-.75-.5-2.5-6.5-4.5-.5-4.75,1.69-5.07.11-7.07.7-6.36,3.17-.92-.67-1s-1.65.09-2.33,0c-.69-.09-2-1.66-2-1.66l-5-9-2.16-1.41-4.18-3.59-1.79.16-1.21-1.16,3.34-4-2-3-.34-3.34,1.34-3.66-1.34-3.67h-1.33l-2.33,2.67h-5.34l-5.66,3-3-.34-5.36-3.09-2.64-.57-1.56-1.09-2.43-2.99.23-2.54.32-3.65,4.42-3.43,2.44-1.99,2.43-3.32s4.2-2.32,4.53-2.32,6.86-1.55,6.86-1.55c0,0,4.31-4.2,4.87-4.31.55-.11,2.32-5.64,2.32-5.64l3.76-4.21s2.99-4.75,3.54-5.08c.55-.34,1.66-5.64,2.27-5.87l4.31-.66,2.65,2.32,5.81,2.82.5,7.3,4.64,2.99,2.99.17.83,1.16-1,1.66-3.48,1.49-2.16,2.98-2.32,3.32-2.32,3.65-.17,5.97-.66,3.99.33,1.99,1.33,2.15h1.99l2.65-2.48,3.49-.67,2.15,2.49,1.33,4.65,2.32,1.65,3.98,2.82.33-.62,4.48,8.51-.67,10.67,3.67,4.67,3.33,6,3,2.66c-1.13,1.03-.37,3.45-.37,3.45l.37,1.72,3,2.25,1.5,3,2.5,2.5c.1.13.2.24.3.35.29.32.55.57.78.75.09.08.18.14.26.19.08.06.16.1.23.14l-2.24,8.99,1.34,3-5.49,5.48Z"/></a>
         <a xlink:title="5" xlink:href=""> <path class="cls-5" d="m218.52,109.43l-1.3,3.55s-.25.91-1.37,1.12c-1.12.2-3.33.67-3.33.67l-5.76,4.84-3.48,3.49-3.1,4-1.33,3.33-2.33,1.67-8,1.33.33,4.34.33,2.66s-1.68,1.76-3,1.67c-1.31-.09-11.66,1.33-11.66,1.33l-4.92,1.4s-.38.38-1.18-.05c-.07-.04-.15-.08-.23-.14-.08-.05-.17-.12-.26-.19-.23-.18-.49-.43-.78-.75-.1-.11-.2-.22-.3-.35l-2.5-2.5-1.5-3-3-2.25-.37-1.72s-.76-2.42.37-3.45l-3-2.66-3.33-6-3.67-4.67.67-10.67-4.48-8.51,1.17-2.2h4.48l4.48.83,2.83-.91,2.81-.91,4.64-4.98,5.48-.66,5.8-5.14,4.15-5.81,1.66-3.32,5.47-2.65,6.64-.83,3.98,2.82,7.66,3.3,4.29,1.84,1.59,1.02.56,1.14v6.14l-.55,1.5-4.66,3-3,5.33.08,2.77.25,1.57,4.07,1.09,1.93-.09,3,1,3.67,5.66Z"/></a>
         <a xlink:title="6" xlink:href=""> <path class="cls-17" d="m281.76,37l-1.17,3.81-.66,1.49-4.48-.33-2.82.17-1.82,3.32s2.15,10.61,2.48,11.11c.34.5-.83,2.99-.83,2.99l-5.14.66-5.8.83-2-1.16-4.31-4.48-.66-3.98-2.99-4.98-11.45,1.83s-.49,2.49-.66,3.15c-.16.66-8.29,11.94-8.29,11.94l-2.49,6.31s.16,1.99-1.99,2.82c-2.16.83-6.8-.17-6.8-.17l-4.15,1.5-1.66,2.82.33,3.81-.23-.14-1.59-1.02-4.29-1.84-7.66-3.3-3.98-2.82-6.64.83-5.47,2.65-1.66,3.32-4.15,5.81-5.8,5.14-5.48.66-4.64,4.98-2.81.91-2.83.91-4.48-.83h-4.48l-1.17,2.2-.33.62-3.98-2.82-2.32-1.65-1.33-4.65-2.15-2.49-3.49.67-2.65,2.48h-1.99l-1.33-2.15-.33-1.99.66-3.99.17-5.97,2.32-3.65,2.32-3.32,2.16-2.98,3.48-1.49,1-1.66-.83-1.16-2.99-.17-4.64-2.99-.5-7.3-5.81-2.82-2.65-2.32-4.31.66.66-7.3,1.99-3.31,5.64-6.64s3.32,0,4.15-.33c.83-.33,2.98-3.15,2.98-3.15,0,0,2.49-2.66,3.16-3.32.66-.66,2.15-2.82,2.15-2.82l4.15-5.97,8.13-.67,3.98-1.16s3.32-.16,2.99,0c-.33.17,4.14.17,4.14.17l2.33-2.16h2.82l2.49-1.33.99-5.14,4.48-3.65,4.31,1.16,5.81,2.16,7.47,5.97,4.64-.66v3.15h2.32l2.49-1.83,5.15.34,4.81,2.98,1.16,4.15,2.15,1.33,3.16-3.15,3.48-1.17,2.99,3.16,3.81,1.32v-4.31l-1.16-6.47s5.64-.17,6.3-.17,4.65,2.82,4.65,2.82l1.66,4.15,4.15,2.49,6.47-.33,4.14-2.32h2.82s1.66,3.31,1.83,3.98c.16.66,3.98,2.15,3.98,2.15l4.98,5.48,2.15,5.31s2.66.99,3.16.99,2.98,0,3.31-.83c.34-.83,3.16,1.99,4.82,1,1.2-.73,2.59,1.37,3.44,2.56.32.44.57.76.7.76.5,0-4.14.83-4.14.83Z"/></a>
         <a xlink:title="7" xlink:href=""> <path class="cls-10" d="m134.29,174.47l-1.79,6.58-2.98,5.05-1.67,10.33s-1.1,1.65-2,1.67-11.04-4.11-11.04-4.11l-8.74-1.1-5.55.54-2.08-.66-1.44-6.41-.48-4.26,2-2,6.33-5s-.25-.59-.62-1.44c-.07-.18-.16-.37-.25-.58-.06-.14-.12-.28-.18-.42-.08-.19-.17-.39-.25-.59h-.01c-.1-.24-.2-.48-.31-.71-.18-.43-.37-.86-.54-1.27-.05-.12-.11-.25-.16-.37-.46-1.04-.83-1.9-.97-2.19-.02-.05-.03-.09-.04-.1-.13-.23-2.67-3-2.67-3l-3.33-6.66-3.67-4.34-1.33-3.66-1.67-2.34-5-3.33-.79-6.85-1.88-10.15-5.33.67-1.67-1.67-5.33-.67-.94-1.56-3.39-3.77-3.24-1.87-2.65-2.15-.34-.28,4.76-.33,2.32-2.22,5.2-5.19,3.65-9.18,3.98-3.76,1.44-6.97h.12l-.23,2.54,2.43,2.99,1.56,1.09,2.64.57,5.36,3.09,3,.34,5.66-3h5.34l2.33-2.67h1.33l1.34,3.67-1.34,3.66.34,3.34,2,3-3.34,4,1.21,1.16,1.79-.16,4.18,3.59,2.16,1.41,5,9s1.31,1.57,2,1.66c.68.09,2.33,0,2.33,0l.67,1-3.17.92-.7,6.36-.11,7.07-1.69,5.07.5,4.75,6.5,4.5.5,2.5-1.75.75-.75,4,1.01.73,1.43,1.04,2.56.98,1,2,1,5,.44.37Z"/></a>
         <a xlink:title="8" xlink:href=""> <path class="cls-11" d="m219.85,232.43l1.67,4.67-1.67,6.33-6,6.67-2.67,1.33-.6,1.73.67,5.81,2.59,4.48-5.25,7.96-.22,9.84,2.37,1.15-.32.29s-1,.17-1.57.08c-.57-.1-6.56,1.91-6.56,1.91l-16.11-.91v2.33l-1.66,2.67-10.34-.67-3,1-2.33-4-2.06.41-.02-.16h.18l-1.1-8.25,4.42-7.68,1.91-2.32v-3.67l1.67-3-.67-3.66-2-4.67,2.17-7,.83-1.33-1.33-2.67-.33-5.67-2.67-5.66-2.33-2.67-3.39-.98-5.28.98v-3l-1.33-4.33-4-.34-1-2.33-.99-6.41-.35-1.26-3.57-3.71.57-.62,2.34-5.67.79-5.91.72-1.43,1.51-1.65,3.31-1.34,1.67-1.33,1-4.34h.02c.1-.04.53-.21,1.06-.53.09-.06.19-.12.29-.19,2-.92,2.96.72,2.96.72l2,1.34,3-3.34,3,.34,3,1.66,9-1.33,1.67,3,3,3.33,4,2,4.33,10.67,3.33,4.33,4.67-.33s3.08.61,3.67.67c.34.03,1.73,1.14,2.85,2.07.81.68,1.48,1.26,1.48,1.26l4.33-.33,1.7,1.42c1.01.58,1.49,1.26,1.71,1.83l.11,1.33,1,11.11-1.85,7.97Z"/></a>
         <a xlink:title="9" xlink:href=""> <path class="cls-2" d="m297.52,66.43l-.67,4.34-3.33,3.33-2.67,1.33,2,7v3.75s.02,1.97.02,1.97l-2.1,7.08-2.1,3.98s-2.65,2.24-2.82,2.56c-.01.01-.03.03-.06.05-.09.05-.25.11-.48.2-.94.36-2.95.97-4.55,1.44-.51.14-.98.28-1.36.39-.14.04-.26.07-.37.11-.08.02-.14.04-.2.05-.04.02-.08.03-.11.03-.07.02-.12.04-.15.05-.03.01-.05.01-.05.01,0,0-1.99-1.09-2.67-.67-.68.42-4.33.67-4.33.67,0,0-3.58-1.31-3.67-1s-2,3-2,3l-1.33,3.67-1.67,2-.67,2.33,1.82,3.14,1.85,8.19,3.33,4.67,2.68.41,1.32.92-3.33,5.67h-3.33l-3.34.67-2.83,3.47-4.31,1.21-2.52.98,1.75,3.78,2.32,5.42,2.88,8.4,1.38,6.07,5.67,3.33,4,10.34v5.66l-3.78,5.05-2.22,2.95-1.34,1,.38,2.43s.58.42-.03.94c-.23.2-.65.42-1.35.63l-3.06,1.78-.32.19-5.62,2.7h-3l-6.42-3.36-3.24.03-3.67.66-5-.66-8-4-3.33.66-1.53,7.4.6,7.19c-.22-.57-.7-1.25-1.71-1.83l-1.7-1.42-4.33.33s-.67-.58-1.48-1.26c-1.12-.93-2.51-2.04-2.85-2.07-.59-.06-3.67-.67-3.67-.67l-4.67.33-3.33-4.33-4.33-10.67-4-2-3-3.33-1.67-3-9,1.33-3-1.66-3-.34-3,3.34-2-1.34s-.96-1.64-2.96-.72c1.03-.71,2.22-1.97,2.03-3.98l.11-9.73.49-1.23-3-2.34,2.51-3.18,5.49-5.48-1.34-3,2.24-8.99c.8.43,1.18.05,1.18.05l4.92-1.4s10.35-1.42,11.66-1.33c1.32.09,3-1.67,3-1.67l-.33-2.66-.33-4.34,8-1.33,2.33-1.67,1.33-3.33,3.1-4,3.48-3.49,5.76-4.84s2.21-.47,3.33-.67c1.12-.21,1.37-1.12,1.37-1.12l1.3-3.55-3.67-5.66-3-1-1.93.09-4.07-1.09-.25-1.57-.08-2.77,3-5.33,4.66-3,.55-1.5v-6.14l-.56-1.14.23.14-.33-3.81,1.66-2.82,4.15-1.5s4.64,1,6.8.17c2.15-.83,1.99-2.82,1.99-2.82l2.49-6.31s8.13-11.28,8.29-11.94c.17-.66.66-3.15.66-3.15l11.45-1.83,2.99,4.98.66,3.98,4.31,4.48,2,1.16,5.8-.83,5.14-.66s1.17-2.49.83-2.99c-.33-.5-2.48-11.11-2.48-11.11l1.82-3.32,2.82-.17,4.48.33.66-1.49,1.17-3.81s3.67-.66,4.13-.8c.06-.02.07-.03.01-.03l.24-.13,1.71,2.39,2.33,2.34v4.66l-1.07,4.89,1.41,3.11,4,1.34,2.66,5,.34,6.66Z"/></a>
         <a xlink:title="10" xlink:href=""> <path class="cls-8" d="m267.18,202.1v3h-4l-2.66,1.33-3.67,4.67-1.49,4.39-1.84,3.94v3l-2,1.67-.29,1.26-.38,5.74-2,3.67s-2.92,3.12-4,3c-1.08-.13-1.33,3.33-1.33,3.33v3.33l-3,1.34s-3.14,5.24-5,6.66c-1.86,1.42-.94,4.48-.94,4.48l-2.06,5.19s-3.54.7-4.43.56c-.88-.15-2.91.77-2.91.77,0,0-1.21,3.21-1.66,3.67s-2.94.27-3.67,0-3.33-1-3.33-1l-.83-.05c-.15-.1-.32-.2-.51-.28l-1.34-2.32-2.59-4.48-.67-5.81.6-1.73,2.67-1.33,6-6.67,1.67-6.33-1.67-4.67,1.85-7.97-1-11.11-.11-1.33-.6-7.19,1.53-7.4,3.33-.66,8,4,5,.66,3.67-.66,3.24-.03,6.42,3.36h3l5.62-2.7,3.38-1.97c.7-.21,1.12-.43,1.35-.63l.32.3,2.33,3Z"/></a>
         <a xlink:title="11" xlink:href=""> <path class="cls-4" d="m339.85,273.1l-13.67,2.33-3-1.66h-4.66l-26.64-12.31-12.36-10.36-12,.33-1.34,4.67-4.17,3.48-3.54.11-9.18-1.11-6.11,3.85-1.07,10.64-1.11,3.43-4.48,1.93-15.98,4.81-8.3-.11-1.5-.73-2.37-1.15.22-9.84,5.25-7.96,1.34,2.32c.19.08.36.18.51.28l.83.05s2.6.73,3.33,1,3.22.46,3.67,0c.45-.46,1.66-3.67,1.66-3.67,0,0,2.03-.92,2.91-.77.89.14,4.43-.56,4.43-.56l2.06-5.19s-.92-3.06.94-4.48c1.86-1.42,5-6.66,5-6.66l3-1.34v-3.33s.25-3.46,1.33-3.33c1.08.12,4-3,4-3l2-3.67.38-5.74.29-1.26,2-1.67v-3l1.84-3.94,1.49-4.39,3.67-4.67,2.55-1.28.11-.05h4v-3l-2.33-3-.32-.3c.61-.52.03-.94.03-.94l-.38-2.43,1.34-1,2.22-2.95,3.44.29.34.89,4.98,2.77,5.02,3.67,2,3h3l1,2.33,3,1.34,2.79-1.27,3.43.88c.65.12,1.03.35,1.23.61.59.71-.12,1.72-.12,1.72l.33,1.72,2,1,3.34,2.67,1.33,3.33,2.67-1.33,1.66,2.33h2.34l1.12.68.54.32,4-1.66,4.67,2,1.67,2.33v4.67l1,2.33,1.33,4.33-.68,1.27-.12,4.09.8,2.64-2.68,4.99-1.77,2.65-3.55,2.7-1.97,5.71-.03,3.62,2.67,1.33h3.66s1.44.14,2.34.67c.9.53,2.33,2,2.33,2l2.33,3,7-.33,1-1.67v3l2.53,4.75.14.25Z"/></a>
         <a xlink:title="12" xlink:href=""> <path class="cls-14" d="m407.85,242.1l-.36,1.46-.37,1.53-1.94,5.01v3l-4.33,2.33-6.67-.33-8.85,2.71-4.15.96-1.66,4,.61,3.33,2.6,6.16.06.15-8.08-.67s-17.14,1.11-17.58,1.11-16.48.11-16.48.11l-.94-.11-2.53-4.75v-3l-1,1.67-7,.33-2.33-3s-1.43-1.47-2.33-2c-.9-.53-2.34-.67-2.34-.67h-3.66l-2.67-1.33.03-3.62,1.97-5.71,3.55-2.7,1.77-2.65,2.68-4.99-.8-2.64.12-4.09.68-1.27-1.33-4.33-1-2.33v-4.67l-1.67-2.33-4.67-2-4,1.66-.54-.32-1.12-.68h-2.34l-1.66-2.33-2.67,1.33-1.33-3.33-3.34-2.67-2-1-.33-1.72s.71-1.01.12-1.72l3.88-1.56,1.33-2,4-2.66,6.67,2,6.33-.67-1.98-3.13-3.68-5.2,1.66-2.67,3.34-2,10-4.33,1.33-2.67.67-7.67,1.66-.66.58-6.32.09-1.02-.72-1.41.44-.76,2.61-4.49h4l3.34,2,5.66,6.66,4.67.34,2.67-1.34,4-.66,5.33-2.67,2.33-3.67,1.12.95.77.65.45,4.07c-.06.2.18.46.55.73,1.03.76,3.11,1.6,3.11,1.6l-.33,2.67,1.33,8,2.67,1.67,1.33,4.33.67,4.33,1.67,1.67-.34,6.33-2.93,6.3-.66,2.1s.66,4.76.59,4.94c0,.22,4.67,3.66,4.67,3.66l1.33,6.67,5.67,1.67,2,1.33v4.33l1.33,6.34,1.67.33,4.33,3.33h2l2.67,3.34,3.15,1.05.85.28Z"/></a>
         <a xlink:title="13" xlink:href=""> <path class="cls-20" d="m333.85,165.43l-.09,1.02-.58,6.32-1.66.66-.67,7.67-1.33,2.67-10,4.33-3.34,2-1.66,2.67,3.68,5.2,1.98,3.13-6.33.67-6.67-2-4,2.66-1.33,2-3.88,1.56c-.2-.26-.58-.49-1.23-.61l-3.43-.88-2.79,1.27-3-1.34-1-2.33h-3l-2-3-5.02-3.67-4.98-2.77-.34-.89-3.44-.29,3.78-5.05v-5.66l-4-10.34-5.67-3.33-1.38-6.07-2.88-8.4-2.32-5.42-1.75-3.78,2.52-.98,4.31-1.21,2.83-3.47,3.34-.67h3.33l3.33-5.67-1.32-.92-2.68-.41-3.33-4.67-1.85-8.19-1.82-3.14.67-2.33,1.67-2,1.33-3.67s1.91-2.69,2-3,3.67,1,3.67,1c0,0,3.65-.25,4.33-.67.68-.42,2.67.67,2.67.67,0,0,.02,0,.05-.01.03-.01.08-.03.15-.05.03,0,.07-.01.11-.03.06,0,.12-.03.2-.05.11-.04.23-.07.37-.11.38-.11.85-.25,1.36-.39,1.6-.47,3.61-1.08,4.55-1.44.06-.02.11-.04.16-.06.1-.04.18-.07.24-.1.03-.01.06-.03.08-.04.03-.02.05-.04.06-.05.17-.32,2.82-2.56,2.82-2.56l2.1-3.98,2.1-7.08v-1.97s1.98-.08,1.98-.08l3,1,4,2.67.14,1.47.86,9.19-2.67,4,1,6.67.34,5,.64,3.18,3.98,11.28,1.38,7.54.33,5.5,1.33,3.83s2.6.39,3,.34c.4-.05,6.34,3.66,6.34,3.66l3.66,1,1.88,1.52,3.65,2.99,5.86,6.32-.44.76.72,1.41Z"/></a>
         <a xlink:title="14" xlink:href=""> <path class="cls-6" d="m467.18,219.1l-3.68,5.82-1.31-.48-.34-.34h-2l-5,4.33v1.17l-2.33,3.17-.34,8.33-1.41,3.16-4.59,4.84v3.67l1,3.33-1.66,1,.38,1.47.11,3.05.04,1.1-1.44.86-2.28,4.43-7.02,3.58-7.46-.16-2.7-1.99-5.63-2.34-20-1-4.67-1.33-9,8-3.12-.51-2.6-6.16-.61-3.33,1.66-4,4.15-.96,8.85-2.71,6.67.33,4.33-2.33v-3l1.94-5.01.37-1.53.36-1.46-.71-.23,6.71-13.11,1.33-5.66,6-2.67,6.67-1.67,3.67-3.33h3l3.08-7.76.67-3.88.58-3.36,1.12-.21.04-.34,5.84-1.11,3.33.33,1.67-1,2.33,1,1.67,5.33.67,2-1.34,1,3,1.67s1.89,2.24,1.67,2.33c-.15.06.85,2.41,1.49,3.86.16.37.3.68.39.88.03.06.05.11.07.15.03.07.05.11.05.11h2l3.33,1,1,1.67Z"/></a>
         <a xlink:title="15" xlink:href=""> <path class="cls-9" d="m458.85,173.93l-9.33,4.5-6,7.33-.67,6.34-2.67,6.33-.17,1.45h-.04s-1.12.22-1.12.22l-.63,3.65-.62,3.59-3.08,7.76h-3l-3.67,3.33-6.67,1.67-6,2.67-1.33,5.66-6.85,13.39.14.05-.14.28-3.15-1.05-2.67-3.34h-2l-4.33-3.33-1.67-.33-1.33-6.34v-4.33l-2-1.33-5.67-1.67-1.33-6.67s-4.67-3.44-4.67-3.66c.07-.18-.59-4.94-.59-4.94l.66-2.1,2.93-6.3.34-6.33-1.67-1.67-.67-4.33-1.33-4.33-2.67-1.67-1.33-8,.33-2.67s-2.08-.84-3.11-1.6c.19-.09.2-.61.12-1.34-.21-1.96-1.08-5.38-.68-5.56,1.24-.55,2.66-1.99,2.66-1.99l2.15-.5h.09l4.44-.34,4.67,2,4-3,3-4,4-2.67,5-.66,3.66.33,4.67,7.33s1.13-1.47,1.67-2c.53-.52,1.75-.9,2.47-1.33.71-.43,5.58-2.43,5.58-2.43,0,0,4.15-2.87,5.28-3.24s1.33-2.66,1.33-2.66v-.21s-.01-.02-.01-.02c.01-.06.01-.1.01-.1l-.33-5-2-2.67-.61-2.73,2.61-2.61s2.31-2.09,2.59-2.66c.22-.43,2.09-1.18,2.96-1.51.27-.1.45-.16.45-.16l-.15-.28c.1-.03.15-.05.15-.05l-1.62-2.91.62-2.76,1.67-1.33h3.33l3.67,6.66,5.67,6.78,4.69,8.19.97,1.7.33,5.33-2,5v3.67l3.67,4.33,1.92,1.11,4.75,3.23,1.55,6.22c.29,2.43-1.22,2.61-1.22,2.61Z"/></a>
         <a xlink:title="16" xlink:href=""> <path class="cls-12" d="m373.99,151.8l1.53,2.3-.13,2.34-.02.33h-.05l-2.15.5s-1.42,1.44-2.66,1.99c-.4.18.47,3.6.68,5.56l-.67.07s-.01-.08,0-.12l-.45-4.07-.77-.65-1.12-.95-2.33,3.67-5.33,2.67-4,.66-2.43,1.29-4.91-.29-5.66-6.66-3.34-2h-4l-2.61,4.49-5.86-6.32-3.65-2.99-1.88-1.52-3.66-1s-5.94-3.71-6.34-3.66c-.4.05-3-.34-3-.34l-1.33-3.83-.33-5.5-1.38-7.54-3.98-11.28-.64-3.18-.34-5-1-6.67,2.67-4-.86-9.19-.14-1.47-4-2.67-3-1-1.99.08v-3.75s-2.01-7-2.01-7l2.67-1.33,3.33-3.33.67-4.34-.34-6.66-2.66-5-4-1.34-1.41-3.11,1.07-4.89v-4.66l-2.33-2.34-1.71-2.39,6.04-3.27,7.82,1.07,8.96,1.5,14.44-2.16s7.79-.32,9.45.25c1.66.58,6,1.34,6,1.34,0,0,1.26-.42,2.17.34.67.56,1.14,1.75.79,4.21l.71,2.11-.67,6.34-2.67,2.33-1.33,3v2.67l4.46,4.12,3.87,2.21,1.93,3.76,1.07,4.24,5.67,7,6,3.67,2.67,4,1,4.33-1.34,3,.34,2,4,1,3.33,2.33,3.33,6.34s.98,7.71.48,7.88c-.5.17-.81,5.78-.81,5.78,0,0-2.49,4.67-2.67,4.67-.17,0,2.67,4.33,2.67,4.33l-1.35,4.46.35,2.88,4,4.33,1.67,3s-2.37,5.72-3.03,6.22c-.67.5-1.5,4.81-1.5,4.81Z"/></a>
         <a xlink:title="17" xlink:href=""> <path class="cls-16" d="m453.77,45.23c-.23.59-.78,1.17-1.97,1.55,0,0-4.25.81-4.28,1.32-.03.51-6,6-6,6l-3,1.67-1.34,3.33-.66,12.33-1.34,6.67s.14,7.33,0,7.33c-.13.01-1.66,4.67-1.66,4.67l1,2.33v4.67l-.64,2.94.34,5.64-.04,4.42-1.66,4.67.37,4h-1.37l-1.67,1.33-.67,3,.05.09,1.62,2.91s-.05.02-.15.05c-.11.04-.28.1-.48.18-.93.36-2.57,1.03-2.78,1.44-.28.57-2.59,2.66-2.59,2.66l-2.67,2.67.06.27.61,2.73,2,2.67.33,5s0,.04-.01.1v.02c-.06.47-.34,2.22-1.32,2.54-1.13.37-5.28,3.24-5.28,3.24,0,0-4.87,2-5.58,2.43-.72.43-1.94.81-2.47,1.33-.54.53-1.67,2-1.67,2l-4.67-7.33-3.66-.33-5,.66-4,2.67-3,4-4,3-4.67-2-4.44.67h-.02l.13-2.34-1.53-2.3s.83-4.31,1.5-4.81c.66-.5,3.03-6.22,3.03-6.22l-1.67-3-4-4.33-.35-2.88,1.35-4.46s-2.84-4.33-2.67-4.33c.18,0,2.67-4.67,2.67-4.67,0,0,.31-5.61.81-5.78s-.48-7.88-.48-7.88l-3.33-6.34-3.33-2.33-4-1-.34-2,1.34-3-1-4.33-2.67-4-6-3.67-5.67-7-1.07-4.24-1.93-3.76-3.87-2.21-4.46-4.12v-2.67l1.33-3,2.67-2.33.67-6.34-.71-2.11c.35-2.46-.12-3.65-.79-4.21,4.84-.41,12.5-1.01,12.5-1.01,0,0,4.45,3.11,5.33,3.33.88.23,3.67-1.66,3.67-1.66l3.66,1.33,2.67,4.33,3.33,1.34,3-3.67,6.67,1.33,3,3,5-.33,5.21,1.03,9.12-2.03,1.34,1.67,4,1,2.3-6.28,1.7-7.72,8.75-.58,6.25.58s2.12,1.58,3,2c.87.41,5.35,1.57,5.35,1.57l5.98,3.43,5.14,2.05,4.53,2.28,1.11,1.2s.51.96.14,1.93Z"/></a>
         <a xlink:title="18" xlink:href=""> <path class="cls-15" d="m504.85,140.1l-.46,1.27-.87,2.4s-4.6,1.89-5.1,2.06c-.5.16-4.98,1.16-5.97,1.32-1,.17-4.1,2.7-4.1,2.7,0,0-1.38,1.12-2.87,1.28-1.49.17-4.96.64-4.96.64l-1,1.66-9.34,5s-12.93-3.18-14-3c-1.06.18-4.66-3-4.66-3l-2.84-.92,1.5-3.75-.33-5.33-.97-1.7-4.69-8.19-5.67-6.78-3.67-6.66h-3.33l-1.67,1.33-.62,2.76-.05-.09.67-3,1.67-1.33h1.37l-.37-4,1.66-4.67.04-4.42-.34-5.64.64-2.94v-4.67l-1-2.33s1.53-4.66,1.66-4.67c.14,0,0-7.33,0-7.33l1.34-6.67.66-12.33,1.34-3.33,3-1.67s5.97-5.49,6-6c.03-.51,4.28-1.32,4.28-1.32,1.19-.38,1.74-.96,1.97-1.55l2.75,1.2.33,5.67,1,1.33h5.33l.67,1.67,3,1.67,2.33,3,4.67-1.34,3.33,2.67,2.34,3.33-1.67,3.34s-2.35.91-3.67.66c-1.31-.24-2.33-.66-2.33-.66l-4,2.33.33,2.33,2.67,4,2.67-.33,3.66-1.33,3.16,3.87,2.51,5.79-2.51,12.79s-.15,1.61-.49,2.55c-.34.93-4.33,1.76-4.33,1.76l-3,2.9-2.47,5.23,1.16,3.48,2.97,2.29-2.64,4.68,2.33,5.48,4.98,2.51,4.67,6.67s1.54,2.57,1.66,3c.13.42,7.34-2.67,7.34-2.67l2.41,3.26,2.82,1.99,7.1-.25Z"/></a>
         <a xlink:title="19" xlink:href=""> <path class="cls-19" d="m565.18,175.77c-1.23,1.41-2.33,1.66-2.33,1.66l-6.04-1.74-4.29.41-2.67,3.33,3.67,1,3,4-2.36,5.86-1.98,4.14s-.45-.14-1.09-.3c-1.34-.35-3.5-.81-4.06-.36-.83.66-3.98-.5-3.98-.5l-1.87-1.17-3.66-8.67s-.57-2.22-1.34-2c-.77.23-1.66,0-1.66,0,0,0-.91,1.79-1,2.34-.1.54,1.33,4.66,1.33,4.66l-1.33,10-8,.34-6.34,2-4.33,3.33-4,6-4,3.33-10,2.67s-1.76.94-3.33,1.67c-1.57.72-9.04,1.55-9.04,1.55l-4.3-1.22-10.46,6.03-3.87,1.64-2.35-.85,3.68-5.82-1-1.67-3.33-1h-2s-.22-.48-.51-1.14c-.64-1.45-1.64-3.8-1.49-3.86.22-.09-1.67-2.33-1.67-2.33l-3-1.67,1.34-1-.67-2-1.67-5.33-2.33-1-1.67,1-3.33-.33-5.84,1.11.17-1.45,2.67-6.33.67-6.34,6-7.33,9.33-4.5s1.51-.18,1.22-2.61l-1.55-6.22-4.75-3.23-1.92-1.11-3.67-4.33v-3.67l.5-1.25,2.84.92s3.6,3.18,4.66,3c1.07-.18,14,3,14,3l9.34-5,1-1.66s3.47-.47,4.96-.64c1.49-.16,2.87-1.28,2.87-1.28,0,0,3.1-2.53,4.1-2.7.99-.16,5.47-1.16,5.97-1.32.5-.17,5.1-2.06,5.1-2.06l.87-2.4,1.79-.27,10.67-1.33,2.67-2,3,2.66,4.33-.66,10,2.33,5.33-1.33,2.34-2.67,2.33,1,2,5.73,3.98,7.63.69,4.31-.67,4.66,4,7.67,8.33,4.67s1.24.58,0,2Z"/></a>
         <a xlink:title="20" xlink:href=""> <path class="cls-13" d="m565.52,244.1l-2.34,7.33-3.88,2.56-10.61,1.33-5.31-1.16-16.53-11.39-5.7,3.09-4.97,7.24-11,7-7.66,4.67-5.34.33-5.66-1.33h-3.34l-8.15,3.49-2.51.84-14,.33-8.34-4-4.17-2.81-.11-3.05-.38-1.47,1.66-1-1-3.33v-3.67l4.59-4.84,1.41-3.16.34-8.33,2.33-3.17v-1.17l5-4.33h2l.34.34,1.31.48,2.35.85,3.87-1.64,10.46-6.03,4.3,1.22s7.47-.83,9.04-1.55c1.57-.73,3.33-1.67,3.33-1.67l10-2.67,4-3.33,4-6,4.33-3.33,6.34-2,8-.34,1.33-10s-1.43-4.12-1.33-4.66c.09-.55,1-2.34,1-2.34,0,0,.89.23,1.66,0,.77-.22,1.34,2,1.34,2l3.66,8.67,1.87,1.17s3.15,1.16,3.98.5c.56-.45,2.72.01,4.06.36l.08,5.45v14.26l1.68,3.93,6,3.33,1.45,3.69,3.88,2.98,1.34,16.33Z"/></a>
</svg>